# xmcd CD database file
#
# Track frame offsets:
#	150
#	25312
#	45004
#	67776
#	89091
#	113150
#	133949
#	158214
#	180749
#	202700
#
# Disc length: 3256 seconds
#
# Revision: 0
# Processed by: cddbd v1.5.2PL0 Copyright (c) Steve Scherf et al.
# Submitted via: CDex 1.51
#
DISCID=7b0cb60a
DTITLE=Era - Reborn
DYEAR=2008
DGENRE=New Age
TTITLE0=Reborn
TTITLE1=Prayers
TTITLE2=Dark voices
TTITLE3=Sinfoni deo
TTITLE4=Come Into My World
TTITLE5=Kilimandjaro
TTITLE6=Thousand Words
TTITLE7=After Thousand Words
TTITLE8=Last song
TTITLE9=Come Into My World (Remix)
EXTD=YEAR: 2008
EXTT0=
EXTT1=
EXTT2=
EXTT3=
EXTT4=
EXTT5=
EXTT6=
EXTT7=
EXTT8=
EXTT9=
PLAYORDER=
